<svg xmlns="http://www.w3.org/2000/svg" xmlns:xlink="http://www.w3.org/1999/xlink" viewBox="0,0,256,256" width="50px" height="50px" fill-rule="nonzero"><g fill="#ffffff" fill-rule="nonzero" stroke="none" stroke-width="1" stroke-linecap="butt" stroke-linejoin="miter" stroke-miterlimit="10" stroke-dasharray="" stroke-dashoffset="0" font-family="none" font-weight="none" font-size="none" text-anchor="none" style="mix-blend-mode: normal"><g transform="scale(5.12,5.12)"><path d="M5.98438,3c-0.26843,0.00416 -0.52392,0.11607 -0.70898,0.31055l-2,2.10547c-0.17686,0.18597 -0.27546,0.43281 -0.27539,0.68945v31.89453c-0.0047,1.99669 0.47016,3.83196 1.47852,5.26563c0.05772,0.08819 0.11116,0.18062 0.17188,0.26563c1.04465,1.46252 2.59059,2.46875 4.34961,2.46875c0.14571,0 0.28707,-0.01775 0.42969,-0.03125c0.18706,0.01376 0.37331,0.03062 0.56641,0.03125c0.0013,0 0.0026,0 0.00391,0h33c0.05035,-0.00011 0.10063,-0.00403 0.15039,-0.01172c1.69563,-0.05632 3.18482,-1.03869 4.19922,-2.45898c1.04469,-1.46272 1.65039,-3.40451 1.65039,-5.5293c0,-2.12479 -0.6057,-4.06658 -1.65039,-5.5293c-1.0097,-1.41372 -2.48993,-2.39432 -4.17578,-2.45898c-0.00131,-0.00005 -0.0026,0.00005 -0.00391,0c-0.0562,-0.00873 -0.11305,-0.01265 -0.16992,-0.01172h-4v-26c-0.00016,-0.40437 -0.24381,-0.76885 -0.6174,-0.92359c-0.37359,-0.15474 -0.8036,-0.06928 -1.08963,0.21656l-3.28711,3.29297l-3.29883,-3.29297c-0.39053,-0.39037 -1.02353,-0.39037 -1.41406,0l-3.29297,3.29297l-3.29297,-3.29297c-0.39053,-0.39037 -1.02353,-0.39037 -1.41406,0l-3.29297,3.29297l-3.29297,-3.29297c-0.39053,-0.39037 -1.02353,-0.39037 -1.41406,0l-3.29297,3.29297l-3.29297,-3.29297c-0.19132,-0.19141 -0.45205,-0.29711 -0.72266,-0.29297zM14,5.41406l3.29297,3.29297c0.39053,0.39037 1.02353,0.39037 1.41406,0l3.29297,-3.29297l3.29297,3.29297c0.39053,0.39037 1.02353,0.39037 1.41406,0l3.29297,-3.29297l3.30078,3.29297c0.39053,0.39037 1.02353,0.39037 1.41406,0l2.28516,-2.28906v23.58203h-28c-1.57343,0 -2.97382,0.80878 -4,2.02539v-25.52148l1.01758,-1.07227l3.27539,3.27539c0.39053,0.39037 1.02353,0.39037 1.41406,0zM9,12v2h14v-2zM26,12v2h7v-2zM9,16v2h7v-2zM19,16v2h14v-2zM9,20v2h5v-2zM17,20v2h7v-2zM27,20v2h6v-2zM9,24v2h11v-2zM23,24v2h10v-2zM9,32c1.0024,0 1.95767,0.55987 2.72266,1.63086c0.76499,1.07099 1.27734,2.62916 1.27734,4.36914c0,1.73998 -0.51235,3.29816 -1.27734,4.36914c-0.66322,0.9285 -1.4702,1.47121 -2.32617,1.59961c-1.40241,-0.1318 -2.38631,-0.70914 -3.10937,-1.60937c-0.03002,-0.03738 -0.05491,-0.08047 -0.08398,-0.11914c-0.71927,-1.06543 -1.20275,-2.56179 -1.20312,-4.23828c0,-0.00065 0,-0.0013 0,-0.00195c0,-1.73998 0.51235,-3.29816 1.27734,-4.36914c0.76499,-1.07099 1.72025,-1.63086 2.72266,-1.63086zM12.98047,32h25.01953h5c1.00113,0 1.9554,0.56128 2.7207,1.63281c0.7653,1.07153 1.2793,2.62897 1.2793,4.36719c0,1.73821 -0.51399,3.29565 -1.2793,4.36719c-0.7653,1.07153 -1.71957,1.63281 -2.7207,1.63281h-30.01953c0.12853,-0.15095 0.25267,-0.30569 0.36914,-0.46875c1.04466,-1.46252 1.65039,-3.40524 1.65039,-5.53125c0,-2.12601 -0.60574,-4.06873 -1.65039,-5.53125c-0.11647,-0.16306 -0.24061,-0.3178 -0.36914,-0.46875zM9,35c-1.10457,0 -2,1.34315 -2,3c0,1.65685 0.89543,3 2,3c1.10457,0 2,-1.34315 2,-3c0,-1.65685 -0.89543,-3 -2,-3z"></path></g></g></svg>