<svg xmlns="http://www.w3.org/2000/svg" xmlns:xlink="http://www.w3.org/1999/xlink" viewBox="0,0,256,256" width="64px" height="64px" fill-rule="nonzero"><g fill="#ffffff" fill-rule="nonzero" stroke="none" stroke-width="1" stroke-linecap="butt" stroke-linejoin="miter" stroke-miterlimit="10" stroke-dasharray="" stroke-dashoffset="0" font-family="none" font-weight="none" font-size="none" text-anchor="none" style="mix-blend-mode: normal"><g transform="scale(4,4)"><path d="M35.93359,0.47266c-1.14453,0.01172 -2.16406,0.66016 -2.66406,1.6875l-0.92187,1.89453h-21.34766c-1.65234,0 -3,1.34766 -3,3v1.75781c-1.78906,1.03906 -3,2.97266 -3,5.1875c0,2.96875 2.16797,5.42969 5,5.91016v0.79688c-0.74219,0.09766 -1.48047,0.24609 -2.20312,0.45313c-2.21094,0.63281 -4.13672,1.91406 -5.57031,3.70703c-1.43359,1.79297 -2.22656,4.04688 -2.22656,6.34766v9.28516c0,1.92969 1.57031,3.5 3.5,3.5c0.48828,0 0.95313,-0.10156 1.375,-0.28125l-0.73047,16.09766c-0.05078,1.10547 0.33984,2.14844 1.10547,2.94922c0.76172,0.79688 1.78516,1.23438 2.89844,1.23438c1.82813,0 3.37891,-1.23047 3.85156,-2.92578c0.47266,1.69531 2.02344,2.92578 3.85938,2.92578c1.10547,0 2.13281,-0.4375 2.89453,-1.23437c0.76172,-0.80078 1.15234,-1.84375 1.10547,-2.94922l-0.625,-13.75781h13.99219l-6.08984,10.4375c-0.27734,0.47656 -0.11719,1.08984 0.35938,1.36719c0.15625,0.09375 0.33203,0.13672 0.50391,0.13672c0.34375,0 0.67578,-0.17969 0.86328,-0.49609l6.67969,-11.44531h0.45703v4.94141c0,0.55078 0.44531,1 1,1c0.55469,0 1,-0.44922 1,-1v-4.94141h0.45703l6.67969,11.44531c0.18359,0.31641 0.51953,0.49609 0.86328,0.49609c0.17188,0 0.34766,-0.04297 0.50391,-0.13672c0.47656,-0.27734 0.63672,-0.89062 0.35938,-1.36719l-6.08594,-10.4375h18.22266c1.65234,0 3,-1.34766 3,-3v-31.17187c1.16406,-0.41406 2,-1.52344 2,-2.82812v-2c0,-1.65625 -1.34766,-3.00391 -3,-3.00391h-21.35937l-1.00391,-1.95312c-0.51953,-1.00781 -1.53906,-1.62891 -2.66797,-1.62891zM35.95313,2.47266h0.01563c0.38281,0 0.71094,0.20313 0.88672,0.54297l0.50391,0.98438h-2.76172l0.46875,-0.96484c0.16797,-0.34766 0.5,-0.55859 0.88672,-0.5625zM11,6.05469h50c0.55078,0 1,0.44922 1,1v2.00391c0,0.55078 -0.44922,1 -1,1h-5c-0.55469,0 -1,0.44922 -1,1c0,0.55078 0.44531,1 1,1h4v31c0,0.55078 -0.44922,1 -1,1h-39.85937l-0.14062,-3.08203v-9.47266l0.90625,0.61328c1.81641,1.22656 3.95703,1.88281 6.15234,1.88281h4.33984c1.67188,0 3.19141,-1.12891 3.52344,-2.76562c0.46484,-2.25 -1.25,-4.23437 -3.42187,-4.23437h-2.98047c-0.83984,0 -1.66406,-0.26562 -2.34766,-0.76172l-3.41016,-2.47266c-1.53125,-1.10937 -3.24609,-1.94141 -5.0625,-2.46094l-0.49219,-0.14453c-1.375,-0.39062 -2.78906,-0.58594 -4.20703,-0.58594v-0.66406c2.83594,-0.47656 5,-2.94141 5,-5.91016c0,-0.67969 -0.11719,-1.33203 -0.32812,-1.94141h27.32813c0.55469,0 1,-0.44922 1,-1c0,-0.55469 -0.44531,-1 -1,-1h-28.48828c-1.10156,-1.26172 -2.71094,-2.05859 -4.51172,-2.05859c-0.33984,0 -0.67578,0.03516 -1,0.08984v-1.03516c0,-0.55078 0.44922,-1 1,-1zM11,9.80469c2.3125,0 4.19531,1.88281 4.19531,4.19531c0,2.3125 -1.88281,4.19531 -4.19531,4.19531c-2.3125,0 -4.19531,-1.88281 -4.19531,-4.19531c0,-2.3125 1.88281,-4.19531 4.19531,-4.19531zM48,10.05859c-0.55469,0 -1,0.44531 -1,1c0,0.55078 0.44531,1 1,1h4c0.55469,0 1,-0.44922 1,-1c0,-0.55469 -0.44531,-1 -1,-1zM12,22.57422c1.23047,0 2.46094,0.16797 3.65625,0.51172c1.91797,0.54688 3.72656,1.42578 5.34375,2.59766l3,2.17578c1.02344,0.74219 2.25781,1.14063 3.51953,1.14063h2.98047c0.82813,0 1.5,0.67188 1.5,1.5c0,0.82813 -0.67187,1.5 -1.5,1.5h-4.4375c-1.79687,0 -3.55078,-0.53516 -5.03516,-1.53906l-2.46484,-1.66406c-0.3125,-0.20703 -0.70312,-0.23047 -1.03125,-0.05469c-0.32812,0.17578 -0.53125,0.51172 -0.53125,0.88281v11.375c0,0.01563 0,0.03125 0,0.04688l0.85938,18.85938c0.02344,0.55078 -0.17187,1.07422 -0.55078,1.47266c-0.42187,0.44141 -1.00391,0.66406 -1.625,0.61328c-1.01953,-0.08203 -1.78125,-0.98047 -1.83203,-1.99609l-0.85156,-17.04687c-0.02734,-0.53125 -0.46875,-0.94922 -1,-0.94922c-0.53125,0 -0.97266,0.41797 -1,0.94922l-0.84766,17.01953c-0.05469,1.01563 -0.80078,1.92578 -1.81641,2.01953c-0.625,0.05859 -1.21484,-0.16016 -1.64063,-0.60547c-0.38281,-0.39844 -0.57812,-0.92187 -0.55469,-1.47266l0.85938,-18.91016v-11.33203c0,-0.55078 -0.44531,-1 -1,-1c-0.55469,0 -1,0.44922 -1,1v10.83203c0,0.82813 -0.67187,1.5 -1.5,1.5c-0.82812,0 -1.5,-0.67187 -1.5,-1.5v-9.03125c0,-1.97266 0.61328,-3.92187 1.86328,-5.44531c1.16406,-1.41797 2.71094,-2.43359 4.48047,-2.9375c1.19531,-0.34375 2.42578,-0.51172 3.65625,-0.51172zM12,27.5c-0.55469,0 -1,0.44922 -1,1c0,0.55078 0.44531,1 1,1h2c0.55469,0 1,-0.44922 1,-1c0,-0.55078 -0.44531,-1 -1,-1zM22,38.05859c-0.55469,0 -1,0.44531 -1,1v2c0,0.55078 0.44531,1 1,1c0.55469,0 1,-0.44922 1,-1v-2c0,-0.55469 -0.44531,-1 -1,-1zM27,38.05859c-0.55469,0 -1,0.44531 -1,1v2c0,0.55078 0.44531,1 1,1c0.55469,0 1,-0.44922 1,-1v-2c0,-0.55469 -0.44531,-1 -1,-1zM32,38.05859c-0.55469,0 -1,0.44531 -1,1v2c0,0.55078 0.44531,1 1,1c0.55469,0 1,-0.44922 1,-1v-2c0,-0.55469 -0.44531,-1 -1,-1zM37,38.05859c-0.55469,0 -1,0.44531 -1,1v2c0,0.55078 0.44531,1 1,1c0.55469,0 1,-0.44922 1,-1v-2c0,-0.55469 -0.44531,-1 -1,-1zM42,38.05859c-0.55469,0 -1,0.44531 -1,1v2c0,0.55078 0.44531,1 1,1c0.55469,0 1,-0.44922 1,-1v-2c0,-0.55469 -0.44531,-1 -1,-1zM47,38.05859c-0.55469,0 -1,0.44531 -1,1v2c0,0.55078 0.44531,1 1,1c0.55469,0 1,-0.44922 1,-1v-2c0,-0.55469 -0.44531,-1 -1,-1zM52,38.05859c-0.55469,0 -1,0.44531 -1,1v2c0,0.55078 0.44531,1 1,1c0.55469,0 1,-0.44922 1,-1v-2c0,-0.55469 -0.44531,-1 -1,-1zM57,38.05859c-0.55469,0 -1,0.44531 -1,1v2c0,0.55078 0.44531,1 1,1c0.55469,0 1,-0.44922 1,-1v-2c0,-0.55469 -0.44531,-1 -1,-1z"></path></g></g></svg>